PathFileType	4	(X/Y/Z)	RBDS025static.trc
DataRate	CameraRate	NumFrames	NumMarkers	Units	OrigDataRate	OrigDataStartFrame	OrigNumFrames
150.000000	150.000000	4	48	mm	150.000000	75	150
Frame#	Time	L.Ankle			L.Ankle.Medial			L.ASIS			L.GTR			L.Heel.Bottom			L.Heel.Lateral			L.Heel.Top			L.HF			L.Iliac.Crest			L.Knee			L.Knee.Medial			L.MT1			L.MT2			L.MT5			L.PSIS			L.Shank.Bottom.Lateral			L.Shank.Bottom.Medial			L.Shank.Top.Lateral			L.Shank.Top.Medial			L.Thigh.Bottom.Lateral			L.Thigh.Bottom.Medial			L.Thigh.Top.Lateral			L.Thigh.Top.Medial			L.TT			R.Ankle			R.Ankle.Medial			R.ASIS			R.GTR			R.Heel.Bottom			R.Heel.Lateral			R.Heel.Top			R.HF			R.Iliac.Crest			R.Knee			R.Knee.Medial			R.MT1			R.MT2			R.MT5			R.PSIS			R.Shank.Bottom.Lateral			R.Shank.Bottom.Medial			R.Shank.Top.Lateral			R.Shank.Top.Medial			R.Thigh.Bottom.Lateral			R.Thigh.Bottom.Medial			R.Thigh.Top.Lateral			R.Thigh.Top.Medial			R.TT			
		X1	Y1	Z1	X2	Y2	Z2	X3	Y3	Z3	X4	Y4	Z4	X5	Y5	Z5	X6	Y6	Z6	X7	Y7	Z7	X8	Y8	Z8	X9	Y9	Z9	X10	Y10	Z10	X11	Y11	Z11	X12	Y12	Z12	X13	Y13	Z13	X14	Y14	Z14	X15	Y15	Z15	X16	Y16	Z16	X17	Y17	Z17	X18	Y18	Z18	X19	Y19	Z19	X20	Y20	Z20	X21	Y21	Z21	X22	Y22	Z22	X23	Y23	Z23	X24	Y24	Z24	X25	Y25	Z25	X26	Y26	Z26	X27	Y27	Z27	X28	Y28	Z28	X29	Y29	Z29	X30	Y30	Z30	X31	Y31	Z31	X32	Y32	Z32	X33	Y33	Z33	X34	Y34	Z34	X35	Y35	Z35	X36	Y36	Z36	X37	Y37	Z37	X38	Y38	Z38	X39	Y39	Z39	X40	Y40	Z40	X41	Y41	Z41	X42	Y42	Z42	X43	Y43	Z43	X44	Y44	Z44	X45	Y45	Z45	X46	Y46	Z46	X47	Y47	Z47	X48	Y48	Z48	

76	0.5	698.013671875	100.3617782592773	1055.578002929688	735.5581665039063	114.5096282958984	1130.621215820313	844.16259765625	967.9014892578125	1126.557006835938	758.489990234375	889.1513061523438	1068.928955078125	638.4227294921875	40.79656600952148	1097.11474609375	664.0110473632813	62.13415145874023	1052.954345703125	648.0090942382813	85.01570892333984	1097.093505859375	714.466064453125	450.6100769042969	1044.274536132813	761.4414672851563	1033.3583984375	1074.391479492188	731.4048461914063	515.2446899414063	1053.764038085938	728.8746337890625	494.0115661621094	1174.440307617188	846.8086547851563	56.07447052001953	1130.160034179688	859.2604370117188	68.92111206054688	1083.602905273438	818.0271606445313	49.95135498046875	1018.220397949219	677.6001586914063	1012.15966796875	1178.74755859375	712.4071044921875	198.0337371826172	1042.849487304688	665.3522338867188	199.0518493652344	1073.290283203125	706.6410522460938	277.7940979003906	1033.181030273438	660.650146484375	279.4068298339844	1061.534545898438	736.7557373046875	631.5776977539063	1043.803833007813	678.044677734375	626.3493041992188	1086.58203125	727.8541259765625	740.5833129882813	1046.042236328125	675.5679321289063	735.5416259765625	1092.166137695313	773.6235961914063	419.1820373535156	1088.0810546875	697.7538452148438	103.069091796875	1409.061279296875	732.107666015625	118.8403549194336	1330.39697265625	849.208984375	982.71923828125	1335.486083984375	771.7896118164063	898.0722045898438	1402.99853515625	635.2896728515625	40.89037704467773	1366.224243164063	661.7000122070313	62.50654602050781	1407.264526367188	643.45166015625	85.27501678466797	1366.514038085938	730.76220703125	456.3778076171875	1425.471435546875	782.4462280273438	1042.657348632813	1374.20068359375	738.0263671875	522.0232543945313	1416.949829101563	734.7706298828125	503.455322265625	1295.1962890625	846.44384765625	57.1900749206543	1329.449096679688	857.4105834960938	69.41372680664063	1372.61328125	818.3629150390625	47.46395111083984	1440.694213867188	681.0883178710938	1019.06201171875	1276.870971679688	703.3189697265625	202.7970275878906	1422.864501953125	662.4140625	205.8917694091797	1391.962280273438	698.936279296875	286.994384765625	1434.093017578125	656.694091796875	285.9957275390625	1401.624633789063	736.08349609375	627.9478759765625	1423.907348632813	677.1749877929688	627.6865234375	1382.844848632813	732.8584594726563	738.6914672851563	1425.126586914063	677.1073608398438	737.7915649414063	1385.159057617188	780.27392578125	431.5839538574219	1373.166748046875	
77	0.5066666666666667	698.01220703125	100.3261566162109	1055.572021484375	735.5609130859375	114.5084228515625	1130.626586914063	844.1881713867188	967.8680419921875	1126.557739257813	758.5092163085938	889.1256713867188	1068.922607421875	638.4164428710938	40.80309295654297	1097.11328125	664.0158081054688	62.10507965087891	1052.934448242188	648.0210571289063	84.98484039306641	1097.082153320313	714.4735107421875	450.5886840820313	1044.267211914063	761.4805908203125	1033.338500976563	1074.383178710938	731.3969116210938	515.2083129882813	1053.7490234375	728.9013061523438	494.0154113769531	1174.429443359375	846.8153076171875	56.07289505004883	1130.15966796875	859.2650146484375	68.90036010742188	1083.57568359375	818.029052734375	49.92049407958984	1018.207641601563	677.6148681640625	1012.138427734375	1178.744384765625	712.40576171875	198.0194549560547	1042.8369140625	665.3658447265625	199.0319519042969	1073.28125	706.6563720703125	277.7761840820313	1033.173217773438	660.6674194335938	279.3834228515625	1061.518798828125	736.7827758789063	631.5514526367188	1043.798706054688	678.0763549804688	626.3309326171875	1086.574584960938	727.8790893554688	740.56298828125	1046.041015625	675.6005249023438	735.51220703125	1092.177612304688	773.617919921875	419.0992126464844	1088.036376953125	697.74609375	103.0600433349609	1409.070922851563	732.10888671875	118.8003387451172	1330.380493164063	849.2157592773438	982.7145385742188	1335.509033203125	771.7935791015625	898.0702514648438	1403.006958007813	635.29150390625	40.89117050170898	1366.223876953125	661.6941528320313	62.50195693969727	1407.263549804688	643.4471435546875	85.27965545654297	1366.514404296875	730.763427734375	456.3770446777344	1425.478759765625	782.438720703125	1042.649169921875	1374.216064453125	738.0155639648438	522.0311889648438	1416.957397460938	734.7946166992188	503.4568786621094	1295.204956054688	846.427001953125	57.15704727172852	1329.428100585938	857.4112548828125	69.37806701660156	1372.597900390625	818.3704833984375	47.43227767944336	1440.673828125	681.0980834960938	1019.068542480469	1276.8642578125	703.3143920898438	202.8050079345703	1422.85888671875	662.4137573242188	205.8890838623047	1391.959594726563	698.9301147460938	286.9881896972656	1434.09326171875	656.696044921875	285.99462890625	1401.630004882813	736.0774536132813	627.952880859375	1423.913330078125	677.1708984375	627.6852416992188	1382.842041015625	732.8530883789063	738.69091796875	1425.133056640625	677.1060180664063	737.7880859375	1385.154052734375	780.2708740234375	431.5363159179688	1373.1396484375	
78	0.5133333333333334	698.0262451171875	100.2927703857422	1055.551025390625	735.5679321289063	114.5003509521484	1130.623168945313	844.218505859375	967.8419189453125	1126.551025390625	758.533447265625	889.1033935546875	1068.913940429688	638.4146118164063	40.80342483520508	1097.102416992188	664.0305786132813	62.08490753173828	1052.9248046875	648.0361328125	84.95194244384766	1097.063720703125	714.4717407226563	450.5665588378906	1044.261962890625	761.5105590820313	1033.330688476563	1074.387817382813	731.4063720703125	515.1819458007813	1053.746948242188	728.90234375	494.0061340332031	1174.442504882813	846.82666015625	56.07067108154297	1130.156372070313	859.253173828125	68.86371612548828	1083.5458984375	818.0294799804688	49.90094375610352	1018.198791503906	677.6412963867188	1012.110046386719	1178.72607421875	712.4036254882813	198.0026092529297	1042.831420898438	665.365234375	199.024169921875	1073.267822265625	706.6508178710938	277.7454833984375	1033.163696289063	660.6688842773438	279.359375	1061.518920898438	736.8307495117188	631.5294799804688	1043.806884765625	678.0977783203125	626.314697265625	1086.578491210938	727.9083862304688	740.5326538085938	1046.034545898438	675.6347045898438	735.4963989257813	1092.1630859375	773.5984497070313	419.0519409179688	1088.013671875	697.7529296875	103.0539093017578	1409.058227539063	732.1134033203125	118.7796783447266	1330.368408203125	849.21728515625	982.7229614257813	1335.5244140625	771.7891235351563	898.072998046875	1403.014770507813	635.2907104492188	40.89083480834961	1366.217041015625	661.704345703125	62.48751831054688	1407.257080078125	643.4432373046875	85.27014923095703	1366.504760742188	730.7618408203125	456.3747863769531	1425.481811523438	782.4368286132813	1042.651977539063	1374.229614257813	738.0159912109375	522.026123046875	1416.948608398438	734.7678833007813	503.4520263671875	1295.199951171875	846.4179077148438	57.12686538696289	1329.42041015625	857.4196166992188	69.3226318359375	1372.568115234375	818.3760375976563	47.41888427734375	1440.662231445313	681.1048583984375	1019.06103515625	1276.871337890625	703.3131713867188	202.7876892089844	1422.852905273438	662.4098510742188	205.8834228515625	1391.951416015625	698.919921875	286.9848327636719	1434.087280273438	656.6867065429688	285.9917907714844	1401.617919921875	736.0707397460938	627.9532470703125	1423.91796875	677.1725463867188	627.6902465820313	1382.84228515625	732.8566284179688	738.676513671875	1425.131713867188	677.1009521484375	737.7767333984375	1385.161254882813	780.2601928710938	431.4892883300781	1373.097900390625	
79	0.52	698.0350341796875	100.2893295288086	1055.55224609375	735.5584716796875	114.4913635253906	1130.627197265625	844.23583984375	967.8292846679688	1126.553466796875	758.546630859375	889.0939331054688	1068.915405273438	638.4168701171875	40.79854202270508	1097.105102539063	664.0270385742188	62.07916641235352	1052.92236328125	648.0310668945313	84.94467926025391	1097.056030273438	714.4820556640625	450.5574951171875	1044.270629882813	761.5184326171875	1033.3212890625	1074.381591796875	731.3963623046875	515.1800537109375	1053.755126953125	728.9041748046875	494.0232238769531	1174.458129882813	846.8253173828125	56.10263442993164	1130.170288085938	859.25634765625	68.84307098388672	1083.53369140625	818.0271606445313	49.89686584472656	1018.186767578125	677.6663208007813	1012.095886230469	1178.72705078125	712.3868408203125	198.0027008056641	1042.827880859375	665.3645629882813	199.0144805908203	1073.274291992188	706.64990234375	277.7374572753906	1033.164306640625	660.6696166992188	279.3479309082031	1061.515869140625	736.8416748046875	631.5126953125	1043.80908203125	678.115966796875	626.308837890625	1086.589599609375	727.916748046875	740.5225830078125	1046.044311523438	675.6566162109375	735.4896240234375	1092.174072265625	773.5994262695313	419.0303344726563	1088.008666992188	697.7560424804688	103.0557098388672	1409.052856445313	732.0994262695313	118.7580947875977	1330.358154296875	849.2223510742188	982.7269287109375	1335.539184570313	771.7908935546875	898.0682983398438	1403.025390625	635.2800903320313	40.89202499389648	1366.215576171875	661.7085571289063	62.48749542236328	1407.2548828125	643.4425048828125	85.26840209960938	1366.5009765625	730.761474609375	456.3726806640625	1425.485473632813	782.440185546875	1042.64794921875	1374.2412109375	738.0209350585938	522.0330810546875	1416.966552734375	734.7551879882813	503.4486999511719	1295.18798828125	846.4326171875	57.08541107177734	1329.41552734375	857.4192504882813	69.34059143066406	1372.561279296875	818.3779296875	47.40179443359375	1440.655517578125	681.1141967773438	1019.058654785156	1276.87353515625	703.3116455078125	202.7827453613281	1422.84814453125	662.4137573242188	205.8841094970703	1391.94775390625	698.9056396484375	286.9787292480469	1434.082885742188	656.690185546875	285.9896850585938	1401.61376953125	736.0714721679688	627.9474487304688	1423.915161132813	677.1766357421875	627.6790771484375	1382.8388671875	732.853271484375	738.6722412109375	1425.134155273438	677.1015625	737.7714233398438	1385.163208007813	780.2643432617188	431.4672546386719	1373.086669921875	
